<?xml version="1.0" standalone="no"?><!DOCTYPE svg PUBLIC "-//W3C//DTD SVG 1.1//EN" "http://www.w3.org/Graphics/SVG/1.1/DTD/svg11.dtd"><svg t="1605520136260" class="icon" viewBox="0 0 1297 1024" version="1.1" xmlns="http://www.w3.org/2000/svg" p-id="4771" xmlns:xlink="http://www.w3.org/1999/xlink" width="253.3203125" height="200"><defs><style type="text/css"></style></defs><path d="M256.084177 950.036179c-241.556287-139.459727-323.175342-449.572007-182.210654-693.726859s450.334521-328.522971 691.880774-189.063244c241.556287 139.459727 323.185376 449.572007 182.220688 693.726859-140.964688 244.154853-450.344554 328.522971-691.890808 189.063244z m10.033074-17.377284c231.994767 133.941536 529.033952 52.874299 664.48045-181.719033 134.944844-233.730489 57.128323-532.374966-174.876478-666.316502s-529.023919-52.874299-664.470416 181.719034-56.255445 532.876619 174.866444 666.316501z" fill="#76BA52" p-id="4772"></path><path d="M285.511183 909.101238c120.778143 69.729863 264.100604 78.338241 392.132659 27.129432l-3.942998-9.230428c-124.791373 49.603517-265.00358 41.637257-383.173124-26.587646l-5.016537 8.688642z m401.363087 23.196467c89.515085-38.6775 165.846711-104.67506 216.012081-191.56148l5.51819-9.551486-8.688642-5.016537-5.51819 9.551486c-49.162062 85.150698-122.744626 150.40581-211.266437 187.347589l3.942998 9.230428z m277.113501-415.790648c1.986549-137.874501-59.767021-269.689026-166.538994-355.662435l-6.752258 7.685334c105.026217 84.970103 164.321684 213.042291 162.967219 347.806539l10.334066 0.170562z m-174.725982-361.541817c-14.999445-12.140019-31.875076-23.045971-49.262393-33.079044-72.107702-41.637257-153.154873-61.783669-235.556508-59.53626l-0.170562 10.334066c80.16426-2.387872 158.964022 17.628111 230.218913 58.763713 16.504407 9.53142 33.380037 20.427338 48.389515 32.567358l6.381035-9.049833z m-497.881258-32.587423c-69.368673 39.891502-127.6207 96.618501-168.756302 167.873392a460.638488 460.638488 0 0 0-55.563163 154.439106l9.832412 1.043439c8.568245-52.97463 27.330093-103.541322 54.419393-150.466008 40.132295-69.509136 97.009791-125.874945 164.502279-164.532379l-4.434619-8.35755z m-225.362905 332.14491c-14.638255 101.604939 6.551597 205.356956 57.429315 293.818568l8.859204-5.317529c-50.145303-85.71255-70.101087-187.598415-56.456107-287.467632l-9.832412-1.033407z m213.403481 451.066935l6.090076 3.511576 5.016537-8.688642-6.080043-3.511576-5.016537 8.688642z" fill="#76BA52" p-id="4773"></path><path d="M395.252945 466.191192l-21.721605-12.541342 4.544983-15.912456c6.451266 4.886107 12.541342 8.397683 19.484229 12.410913 4.344321 2.508268 8.457881 1.40463 10.96615-2.939691l27.089299-46.924686c-18.751815-9.66185-39.730973-19.464163-61.954231-31.132629l3.541675-14.176733c4.344321 2.508268 9.691949 3.280815 13.67508 4.414553 19.644759 2.086879 43.041887 1.695589 71.555883-1.545094-17.507714-7.795698-36.259529-17.457549-55.884222-27.621052l4.424586-13.67508c3.481477 2.006615 7.08335 1.775854 11.06648 2.909592 12.059755 1.17387 28.875187-1.856119 50.436263-9.099998-17.00606-8.668576-34.383344-18.70165-52.633506-29.236378l2.678831-14.668354c54.740451 31.604183 103.300529 53.847507 144.305701 67.091165l0.431423 15.310471c-22.494152-7.193714-47.958093-17.256887-76.401858-30.199552-20.186545 6.872656-38.376508 10.273868-55.051476 11.076513 16.143216 8.156889 31.413554 15.812124 48.058424 23.106169 12.701872-1.936383 25.905397-4.735611 39.981799-7.033184l9.521387 13.604848c-48.710574 10.113338-88.923134 13.54465-119.895233 13.032963 32.276399 16.313778 60.218509 30.129321 83.445076 40.062064-0.832745-8.588311-2.538368-17.678276-4.243991-26.768241l13.945973-0.070232c5.096802 27.289961 8.227121 49.944642 8.899337 68.867019l-15.812125 1.294267c0.040132-8.086658-0.300992-17.547846-0.62205-27.009035-14.046303-5.789084-29.316642-13.444319-46.824356-21.240018l-29.597568 51.269008c-7.896029 11.658432-16.985994 13.364054-27.410358 7.34421z m74.676169-31.032298c11.09658 24.942222 19.574527 48.379482 24.581031 69.800095l-15.069677 4.043329c-3.772436-19.564494-11.758763-43.854566-22.714879-71.034163l13.203525-2.809261z m-73.482233-41.266032l4.534949 14.206832a211.136007 211.136007 0 0 1-71.365254 13.243658l-2.167144-16.313778c25.142883 0.612018 48.299218-3.391179 68.997449-11.136712z m219.754417 143.091699l-7.524805 13.042996c-22.393821-1.354465-46.392934-5.93958-72.498992-12.902533l6.290737-14.899114c26.477282 8.327451 51.339239 13.41422 73.73306 14.758651z m46.342768-150.496108l10.023041 12.742004c-23.607823 18.812014-44.697344 33.269673-63.148167 41.155669 9.190296 4.14366 18.009368 6.922821 27.701317 10.203636a268.715817 268.715817 0 0 0 22.474085-14.828883l9.651818 11.367473c-35.075626 22.614549-62.01443 37.182572-81.33813 44.556881 15.039578 4.053362 31.443654 7.725467 47.988192 9.180262l-7.524805 13.032963c-24.992387-2.849393-47.125348-8.678609-67.372091-15.73186l4.043328-15.04961c3.110253 0.642117 5.849282-0.100331 8.588312-0.822712 11.467803-3.812568 28.554128-11.32734 49.513219-23.557658l-34.293046-12.842334 4.053361-15.039578c3.110253 0.632084 5.849282-0.100331 9.089965-1.705623 19.464163-9.611685 39.69084-24.581031 60.549601-42.66063z m-12.170118 105.347276l3.551708-14.166701c0.862844 0.501654 2.237375 0.13043 3.110253 0.632084 8.588311-0.832745 24.801759-8.849171 46.262503-21.942332l-33.008813-19.062841 7.524806-13.032963 48.650375 28.092607c1.40463-8.457881 2.809261-16.905729 2.849393-25.00242l15.410801 5.41786c-0.902977 7.595037-1.946416 17.417416-3.8527 26.748175l43.44321 25.082685-7.524806 13.032962-58.221927-33.610797c-18.220062 11.48787-32.186101 19.634726-43.653905 23.447294 18.380591 8.297352 37.624027 17.086325 56.506272 24.520832-0.832745-8.598344-1.66549-17.186656-3.361079-26.27662l13.945972-0.060199c3.49151 24.029212 5.387761 44.817741 5.317529 61.001089l-14.94928 1.805954c0.411356-6.722159 0.311025-12.571442-0.150496-19.795255-24.962288-10.936051-53.034828-22.514218-81.849816-36.821381z m11.136712 16.855564l13.022929 7.524805c-14.909148 23.82855-28.423698 39.19922-39.289517 47.988193-12.24035 9.150163-27.310027 13.193492-45.359527 14.347295l-2.167144-16.303745c15.310471-0.431422 28.142772-4.605181 38.878161-11.156778 9.862512-7.043218 21.500877-21.179819 34.915098-42.39977z m21.109587 119.935365c8.688642 5.016537 15.410801 5.41786 20.026015 3.451377 5.116868-2.83936 12.50121-13.64498 22.534284-31.012231l-9.651817-11.367473a195.965999 195.965999 0 0 1-16.293712 24.189741c-3.371113 3.842667-6.983019 4.083461-11.839027 2.438037l-12.160085-7.023151c-3.471444-2.006615-2.83936-5.116868-0.832746-8.588312l36.62072-63.429093-13.032963-7.524805-37.624027 65.164815c-6.521498 11.297241-3.441344 20.026015 7.845864 26.547513l13.90584 8.026459z m-362.69562-180.444834l-14.578057 3.170452c7.875963 18.460856 13.15336 35.406718 15.450934 49.473087l15.07971-4.033296c-3.170451-14.578056-8.949502-30.661074-15.952587-48.610243z m14.256998 234.151878l-33.881691-19.564494a161.291696 161.291696 0 0 1-28.413665-21.039356 53.747177 53.747177 0 0 1-12.822269-25.935496c-0.601984-4.986438-2.70893-7.364276-5.317529-8.869237-4.334288-2.508268-17.176622 1.675523-37.63406 13.032963l-4.916206-15.581364c19.464163-9.621718 34.17265-15.029545 43.995029-13.996138l33.610797-58.211894-26.92877-15.551265 7.524806-13.032963 39.961733 23.07607-41.135603 71.244858c1.244101 1.876185 1.976516 4.615214 1.836052 6.852589 1.334399 7.725467 4.043329 15.07971 7.755566 20.698232 4.575082 6.120175 12.260416 12.872434 23.557658 19.393931l38.226011 22.072763 26.938804 15.551264c9.561519 5.518191 16.504407 9.53142 21.350381 11.166812l-11.497903 11.899225-41.707488-24.079377z m52.031521-170.391693c5.317529 8.859204 10.123372 18.591286 13.193492 27.32006a345.840056 345.840056 0 0 0 37.834721-1.324366l-85.150698-49.162062 6.521498-11.297241 103.40086 59.69679-5.518191 9.551486c-16.815432 3.040021-34.864932 4.203858-52.412778 4.494817l1.966483 4.615214 38.226011 22.072763-49.162062 85.150697c-5.518191 9.561519-13.735278 11.758763-24.159642 5.738919l-15.641562-9.029767 3.050055-13.293823 14.267031 9.390958c4.344321 2.508268 8.457881 1.40463 10.464496-2.066814l8.528112-14.768684-32.145968-18.561187-19.062841 33.008813-13.042996-7.524805 19.062841-33.008814-32.145969-18.561186-19.564494 33.88169-13.032963-7.524805 58.693482-101.655105 47.787531 27.590954c-3.932965-9.230428-9.611685-19.464163-16.163282-30.199553l14.206833-4.534949z m-54.870881 52.894365l-9.531421 16.51444 32.156002 18.561187 9.53142-16.51444-32.156001-18.561187z m45.188964 26.085992l-9.53142 16.51444 32.145969 18.561187 9.53142-16.51444-32.145969-18.561187z m38.667467 7.263946l10.033074-17.377284-32.145969-18.561187-10.033074 17.377284 32.145969 18.561187z m-45.178932-26.085992l10.033074-17.377284-32.156002-18.561187-10.033073 17.377284 32.156001 18.561187z m161.030836-2.006615l-14.568023 3.160418c7.384342 19.3237 11.788862 35.767908 14.086435 49.844311l15.581364-4.916206c-3.170451-14.568023-8.076624-30.149387-15.089743-48.098556z m18.611352 236.650113l-35.617412-20.567801a163.729733 163.729733 0 0 1-29.27651-21.54101 53.747177 53.747177 0 0 1-12.822268-25.935496c-0.601984-4.986438-2.70893-7.364276-5.317529-8.869237-4.344321-2.508268-17.176622 1.675523-39.008592 13.394154l-4.916206-15.571331c19.965817-10.494595 34.17265-15.039578 43.995029-13.996138l33.610798-58.211895-27.791615-16.052918 7.524805-13.042996 40.834611 23.577724-41.135603 71.25489c1.234068 1.876185 1.966482 4.615214 2.698897 7.354244 2.207276 8.227121 4.916206 15.581364 8.618411 21.199885 4.575082 6.120175 13.634947 12.50121 24.430534 19.895585l39.098889 22.574416 25.193049 14.547957c8.688642 5.016537 15.641562 9.029766 20.487537 10.665158l-11.497903 11.899226-39.108922-22.574417z m8.969568-29.587534l-26.92877-15.551265 4.043329-15.039578c8.186988 5.889414 16.87563 10.905951 24.701427 15.420835 5.217198 3.009922 9.320726 1.906284 12.330648-3.310915l47.155447-81.669221-72.117735-41.637256 8.02646-13.905841 72.117735 41.637257 18.059532-31.273091 13.905841 8.026459-18.059533 31.273091 28.674525 16.554572-8.026459 13.90584-28.674525-16.554572-48.660408 84.277821c-6.160307 12.671772-15.250272 14.367362-26.547514 7.845864z m0.872878-111.868774c4.14366 20.928992 6.17034 39.480146 6.230538 53.416085l-15.802091 1.3043c-0.431422-15.310471-1.605292-33.370004-5.738918-54.288963l15.310471-0.431422z" fill="#508733" p-id="4774"></path></svg>