<?xml version="1.0" standalone="no"?><!DOCTYPE svg PUBLIC "-//W3C//DTD SVG 1.1//EN" "http://www.w3.org/Graphics/SVG/1.1/DTD/svg11.dtd"><svg t="1600308247660" class="icon" viewBox="0 0 1024 1024" version="1.1" xmlns="http://www.w3.org/2000/svg" p-id="4408" width="32" height="32" xmlns:xlink="http://www.w3.org/1999/xlink"><defs><style type="text/css"></style></defs><path d="M884.326 525.466a38.554 38.554 0 1 1 77.108 0v424.14a37.069 37.069 0 0 1-38.554 38.554H74.598a37.12 37.12 0 0 1-38.758-38.554V101.274A37.12 37.12 0 0 1 74.394 62.72h424.345a37.12 37.12 0 0 1 38.554 38.554 37.12 37.12 0 0 1-38.554 38.553H113.152v771.226h771.174z" fill="#5A64FF" p-id="4409"></path><path d="M402.38 447.232l399.002-383.59a105.318 105.318 0 0 1 148.89 2.918l2.765 3.02 7.731 9.729a116.07 116.07 0 0 1-12.954 149.709L572.16 601.139l-129.024 38.503a56.678 56.678 0 0 1-71.22-67.738z m59.188 34.048l-22.22 90.982L537.6 542.72l364.032-360.346a50.483 50.483 0 0 0 7.168-62.77l-4.198-5.684-1.639-1.792a39.731 39.731 0 0 0-56.32-1.126z" fill="#FF7436" p-id="4410"></path></svg>