<?xml version="1.0" standalone="no"?><!DOCTYPE svg PUBLIC "-//W3C//DTD SVG 1.1//EN" "http://www.w3.org/Graphics/SVG/1.1/DTD/svg11.dtd"><svg t="1599639085072" class="icon" viewBox="0 0 1024 1024" version="1.1" xmlns="http://www.w3.org/2000/svg" p-id="7743" width="32" height="32" xmlns:xlink="http://www.w3.org/1999/xlink"><defs><style type="text/css"></style></defs><path d="M512 62c-61.875 0-119.99999971 11.25-174.375 35.62499971S234.50000029 152 193.24999971 193.24999971c-41.24999971 41.24999971-73.125 88.12500029-95.625 142.50000058C73.25 392.00000029 62 450.125 62 512s11.25 119.99999971 35.62499971 174.375c22.5 54.37500029 56.25 103.12499971 95.625 142.49999971 41.24999971 41.24999971 88.12500029 73.125 142.50000058 95.625s112.5 35.62499971 174.375 35.62500058 119.99999971-11.25 174.375-35.62500058 103.12499971-56.25 142.49999971-95.625c41.24999971-41.24999971 73.125-88.12500029 95.625-142.49999971 22.5-54.37500029 35.62499971-112.5 35.62499971-174.375s-11.25-119.99999971-35.62499971-174.375c-22.5-54.37500029-56.25-103.12499971-95.625-142.49999971-41.24999971-41.24999971-88.12500029-73.125-142.49999971-95.625S573.875 62 512 62z m0 704.99999971c-15.00000029 0-26.25000029-5.625-37.50000029-14.99999942s-15.00000029-22.5-14.99999942-37.50000029 5.625-26.25000029 14.99999942-37.50000029 22.5-15.00000029 37.50000029-14.99999942 26.25000029 5.625 37.50000029 14.99999942 15.00000029 22.5 14.99999942 37.50000029-5.625 26.25000029-14.99999942 37.50000029-22.5 15.00000029-37.50000029 14.99999942z m52.49999971-225c0 15.00000029-5.625 26.25000029-14.99999942 37.50000029s-22.5 15.00000029-37.50000029 15.00000029-26.25000029-5.625-37.50000029-15.00000029-15.00000029-22.5-14.99999942-37.50000029V300.12499971c0-15.00000029 5.625-26.25000029 14.99999942-37.49999942 9.37500029-9.37500029 22.5-15.00000029 37.50000029-15.00000029s26.25000029 5.625 37.50000029 15.00000029c9.37500029 9.37500029 15.00000029 22.5 14.99999942 37.49999942v241.875z" fill="#efb336" p-id="7744"></path></svg>