<?xml version="1.0" standalone="no"?><!DOCTYPE svg PUBLIC "-//W3C//DTD SVG 1.1//EN" "http://www.w3.org/Graphics/SVG/1.1/DTD/svg11.dtd"><svg t="1600308239609" class="icon" viewBox="0 0 1024 1024" version="1.1" xmlns="http://www.w3.org/2000/svg" p-id="4211" width="32" height="32" xmlns:xlink="http://www.w3.org/1999/xlink"><defs><style type="text/css"></style></defs><path d="M40.593 1023.87A40.659 40.659 0 0 1 0 983.275V40.593A40.659 40.659 0 0 1 40.593 0h942.814a40.593 40.593 0 0 1 40.528 40.593v942.814A40.593 40.593 0 0 1 983.407 1024z m61.545-124.4a22.26 22.26 0 0 0 22.261 22.26h775.137a22.326 22.326 0 0 0 22.26-22.26V353.555H102.138zM124.4 102.138a22.26 22.26 0 0 0-22.26 22.261v127.018h819.657V102.138z" fill="#5967FF" p-id="4212"></path><path d="M325.14 805.32L179.79 659.904a31.427 31.427 0 0 1 0-44.391l145.35-145.35a31.362 31.362 0 0 1 44.456 0 31.493 31.493 0 0 1 0 44.456L268.44 615.448a31.427 31.427 0 0 0 0 44.456l100.96 100.96a31.427 31.427 0 0 1 0 44.39 31.362 31.362 0 0 1-44.26 0.066z m325.729 0a31.362 31.362 0 0 1 0-44.457l100.96-100.96a31.493 31.493 0 0 0 0-44.455l-100.96-101.091a31.296 31.296 0 0 1 0-44.39 31.493 31.493 0 0 1 44.456 0l145.35 145.48a31.493 31.493 0 0 1 0 44.457L695.325 805.32a31.362 31.362 0 0 1-44.456 0z m-239.632 0l143.386-360.626a31.427 31.427 0 0 1 40.79-17.547 31.427 31.427 0 0 1 17.612 40.79l-143.32 360.691a31.427 31.427 0 0 1-40.856 17.612 31.493 31.493 0 0 1-17.612-40.92z" fill="#FF8040" p-id="4213"></path></svg>