<?xml version="1.0" standalone="no"?><!DOCTYPE svg PUBLIC "-//W3C//DTD SVG 1.1//EN" "http://www.w3.org/Graphics/SVG/1.1/DTD/svg11.dtd"><svg t="1600337168728" class="icon" viewBox="0 0 1027 1024" version="1.1" xmlns="http://www.w3.org/2000/svg" p-id="1852" width="32.09375" height="32" xmlns:xlink="http://www.w3.org/1999/xlink"><defs><style type="text/css"></style></defs><path d="M459.84 965.013333H114.901333a91.605333 91.605333 0 0 1-91.605333-91.605333V528.490667c241.088 0 436.544 195.434667 436.544 436.522666zM869.738667 249.429333h-282.666667c-24.96 0-47.573333-13.653333-59.306667-35.84l-42.88-81.28h252.8c68.053333 0 124.16 51.2 132.053334 117.12z" fill="#ffdb26" p-id="1853" data-spm-anchor-id="a313x.7781069.0.i11" class=""></path><path d="M933.141333 235.157333c-7.317333-90.218667-82.901333-161.429333-174.976-161.429333H493.525333a20.906667 20.906667 0 0 0-9.792 2.666667 109.184 109.184 0 0 0-93.184-52.288H113.322667A109.866667 109.866667 0 0 0 3.584 133.824v738.389333a109.866667 109.866667 0 0 0 109.738667 109.738667h804.565333a109.866667 109.866667 0 0 0 109.717333-109.738667V343.338667c-0.021333-55.274667-41.237333-100.672-94.464-108.181334z m-42.965333-1.536H607.552a66.88 66.88 0 0 1-59.328-35.818666L505.386667 116.416h252.8c67.968-0.021333 124.138667 51.285333 131.989333 117.205333z m94.741333 638.613334a67.136 67.136 0 0 1-67.050666 67.072H113.322667a67.157333 67.157333 0 0 1-67.072-67.072V133.824A67.136 67.136 0 0 1 113.322667 66.773333h277.248c24.96 0 47.701333 13.738667 59.349333 35.818667l60.544 115.072a109.44 109.44 0 0 0 97.088 58.624h310.336a67.136 67.136 0 0 1 67.050667 67.050667v528.896z" p-id="1854" data-spm-anchor-id="a313x.7781069.0.i9" class="" fill="#5a64ff"></path><path d="M339.157333 228.096h-176.426666a21.333333 21.333333 0 0 0 0 42.666667h176.426666a21.333333 21.333333 0 0 0 0-42.666667zM293.952 587.904v-1.706667c21.482667-7.530667 34.432-31.402667 34.432-54.592 0-47.082667-39.552-62.101333-91.413333-62.101333H153.386667v252.458667h90.069333c55.594667 0 97.92-23.552 97.92-74.368-0.021333-34.112-20.138667-53.226667-47.424-59.690667z m-90.069333-79.829333h30.016c30.357333 0 45.354667 8.874667 45.354666 31.04 0 20.117333-13.973333 33.088-46.037333 33.088H203.882667v-64.128z m35.114666 174.997333H203.882667v-73.344h35.114666c34.794667 0 53.226667 10.218667 53.226667 34.794667 0 26.261333-18.752 38.549333-53.226667 38.549333zM486.058667 464.725333c-66.858667 0-112.917333 47.765333-112.917334 129.984 0 81.877333 46.058667 132.010667 112.917334 132.010667 66.88 0 112.938667-50.154667 112.938666-132.010667s-46.058667-129.984-112.938666-129.984z m0 218.346667c-37.525333 0-61.397333-34.453333-61.397334-88.362667 0-54.250667 23.872-86.656 61.397334-86.656 37.546667 0 61.418667 32.405333 61.418666 86.656 0 53.888-23.872 88.362667-61.418666 88.362667zM779.882667 587.541333c-5.461333 15.701333-9.877333 32.426667-15.338667 48.789334h-1.706667c-5.12-16.384-9.898667-33.088-15.36-48.789334l-42.986666-118.037333H648.533333v252.458667h45.376v-105.408c0-23.872-4.074667-59.029333-6.485333-82.901334h1.344l20.117333 59.349334 39.253334 106.112h28.992l38.869333-106.112 20.48-59.349334h1.344c-2.368 23.872-6.122667 59.029333-6.122667 82.901334v105.408h46.037334V469.504h-55.936l-41.92 118.037333z" p-id="1855" data-spm-anchor-id="a313x.7781069.0.i12" class="" fill="#ff7436"></path></svg>