<?xml version="1.0" standalone="no"?><!DOCTYPE svg PUBLIC "-//W3C//DTD SVG 1.1//EN" "http://www.w3.org/Graphics/SVG/1.1/DTD/svg11.dtd"><svg t="1599458682306" class="icon" viewBox="0 0 1096 1024" version="1.1" xmlns="http://www.w3.org/2000/svg" p-id="7680" width="34.25" height="32" xmlns:xlink="http://www.w3.org/1999/xlink"><defs><style type="text/css"></style></defs><path d="M933.04298 448.22653H48.153717v479.120849a48.32631 48.32631 0 0 0 48.153716 48.153717h828.451037a50.742626 50.742626 0 0 0 8.111916-27.269847z m0-48.153717v-79.22063a51.77819 51.77819 0 0 0-50.91522-50.91522H336.903422L296.861621 195.031182a51.77819 51.77819 0 0 0-44.874431-26.924659H85.951795a50.05225 50.05225 0 0 0-37.970672 17.259396v214.361706z" fill="#FFD524" p-id="7681"></path><path d="M761.829766 192.442272h13.980111a23.990561 23.990561 0 0 0 0-47.981122h-13.980111a23.990561 23.990561 0 0 0 0 47.981122z m81.119164 0h22.092027a23.990561 23.990561 0 0 0 0-47.981122h-22.092027a23.990561 23.990561 0 0 0 0 47.981122z" fill="#6B400D" p-id="7682"></path><path d="M1000.009439 144.288556h-54.884881a23.990561 23.990561 0 0 0 0 47.981122h54.884881a48.32631 48.32631 0 0 1 48.153716 48.153717v159.476824H47.981123V96.134839a48.32631 48.32631 0 0 1 48.153716-48.153716h236.281139a47.981123 47.981123 0 0 1 42.458116 25.371313l56.956009 106.317883a23.990561 23.990561 0 0 0 21.229058 12.771953h103.556379a23.990561 23.990561 0 0 0 0-47.981122h-89.058486l-50.05225-93.54593A95.962245 95.962245 0 0 0 332.588572 0H96.307433A96.480027 96.480027 0 0 0 0 96.307433v831.385134a96.480027 96.480027 0 0 0 96.307433 96.307433h903.529412a96.480027 96.480027 0 0 0 96.307433-96.307433v-686.923984a96.480027 96.480027 0 0 0-96.134839-96.480027z m48.32631 783.058823a48.32631 48.32631 0 0 1-48.153716 48.153717H96.480027a48.32631 48.32631 0 0 1-48.153717-48.153717V448.22653h1000.182033v479.120849z" fill="#6B400D" p-id="7683"></path></svg>