<?xml version="1.0" standalone="no"?><!DOCTYPE svg PUBLIC "-//W3C//DTD SVG 1.1//EN" "http://www.w3.org/Graphics/SVG/1.1/DTD/svg11.dtd"><svg t="1605519871470" class="icon" viewBox="0 0 1297 1024" version="1.1" xmlns="http://www.w3.org/2000/svg" p-id="18445" xmlns:xlink="http://www.w3.org/1999/xlink" width="253.3203125" height="200"><defs><style type="text/css"></style></defs><path d="M256.084177 950.036179c-241.556287-139.459727-323.175342-449.572007-182.210654-693.726859s450.334521-328.522971 691.880774-189.063244c241.556287 139.459727 323.185376 449.572007 182.220688 693.726859-140.964688 244.154853-450.344554 328.522971-691.890808 189.063244z m10.033074-17.377284c231.994767 133.941536 529.033952 52.874299 664.48045-181.719033 134.944844-233.730489 57.128323-532.374966-174.876478-666.316502s-529.023919-52.874299-664.470416 181.719034-56.255445 532.876619 174.866444 666.316501z" fill="#D2624B" p-id="18446"></path><path d="M285.511183 909.101238c120.778143 69.729863 264.100604 78.338241 392.132659 27.129432l-3.942998-9.230428c-124.791373 49.603517-265.00358 41.637257-383.173124-26.587646l-5.016537 8.688642z m401.363087 23.196467c89.515085-38.6775 165.846711-104.67506 216.012081-191.56148l5.51819-9.551486-8.688642-5.016537-5.51819 9.551486c-49.162062 85.150698-122.744626 150.40581-211.266437 187.347589l3.942998 9.230428z m277.113501-415.790648c1.986549-137.874501-59.767021-269.689026-166.538994-355.662435l-6.752258 7.685334c105.026217 84.970103 164.321684 213.042291 162.967219 347.806539l10.334066 0.170562z m-174.725982-361.541817c-14.999445-12.140019-31.875076-23.045971-49.262393-33.079044-72.107702-41.637257-153.154873-61.783669-235.556508-59.53626l-0.170562 10.334066c80.16426-2.387872 158.964022 17.628111 230.218913 58.763713 16.504407 9.53142 33.380037 20.427338 48.389515 32.567358l6.381035-9.049833z m-497.881258-32.587423c-69.368673 39.891502-127.6207 96.618501-168.756302 167.873392a460.638488 460.638488 0 0 0-55.563163 154.439106l9.832412 1.043439c8.568245-52.97463 27.330093-103.541322 54.419393-150.466008 40.132295-69.509136 97.009791-125.874945 164.502279-164.532379l-4.434619-8.35755z m-225.362905 332.14491c-14.638255 101.604939 6.551597 205.356956 57.429315 293.818568l8.859204-5.317529c-50.145303-85.71255-70.101087-187.598415-56.456107-287.467632l-9.832412-1.033407z m213.403481 451.066935l6.090076 3.511576 5.016537-8.688642-6.080043-3.511576-5.016537 8.688642zM385.661327 468.759659l-21.721605-12.541342 4.544982-15.912456c6.451266 4.886107 12.541342 8.397683 19.48423 12.410913 4.344321 2.508268 8.457881 1.40463 10.966149-2.939691l27.0893-46.914653c-18.751815-9.671883-39.730973-19.464163-61.964265-31.142662l3.551709-14.1667c4.344321 2.508268 9.691949 3.270782 13.665046 4.414553 19.664825 2.076846 43.05192 1.685556 71.565916-1.555127-17.507714-7.785665-36.259529-17.457549-55.884221-27.621052l4.414552-13.67508c3.481477 2.006615 7.093383 1.775854 11.076514 2.909592 12.059755 1.183903 28.875187-1.856119 50.436262-9.099998-17.00606-8.668576-34.383344-18.70165-52.633505-29.236378l2.67883-14.668354c54.740451 31.604183 103.300529 53.847507 144.305702 67.101198l0.431422 15.300438c-22.494152-7.193714-47.958093-17.256887-76.401858-30.199552-20.186545 6.872656-38.376508 10.273868-55.051476 11.076513 16.143216 8.156889 31.403521 15.822157 48.058424 23.106169 12.701872-1.92635 25.905397-4.735611 39.971766-7.033184l9.53142 13.604848c-48.710574 10.113338-88.923134 13.54465-119.905265 13.032963 32.286432 16.323811 60.218509 30.129321 83.445075 40.072097-0.832745-8.598344-2.528335-17.688309-4.233957-26.788308l13.945973-0.050165c5.096802 27.269895 8.227121 49.934609 8.899336 68.856986l-15.812124 1.3043c0.030099-8.096691-0.300992-17.557879-0.632084-27.019068-14.03627-5.779051-29.296576-13.444319-46.814323-21.240018l-29.597568 51.269008c-8.758873 11.156778-16.985994 13.364054-27.410357 7.34421z m74.676168-31.032298c11.086547 24.942222 19.564494 48.379482 24.581031 69.800095l-15.07971 4.043329c-3.772436-19.554461-11.74873-43.854566-22.704846-71.034163l13.203525-2.809261z m-73.983886-40.393155l4.534949 14.206833a211.136007 211.136007 0 0 1-71.365254 13.243657l-2.167144-16.313778a266.247681 266.247681 0 0 0 68.997449-11.136712z m219.383193 141.717168l-7.524806 13.042996c-22.393821-1.344432-46.392934-5.93958-72.488958-12.892499l6.280704-14.909148c27.340126 8.829105 51.339239 13.424253 73.743093 14.758651z m45.851147-149.62323l10.013008 12.742004c-23.59779 18.80198-44.697344 33.269673-63.148167 41.155669 9.190296 4.14366 18.009368 6.922821 27.701317 10.203636a268.715817 268.715817 0 0 0 22.474086-14.838917l9.651817 11.367473c-35.075626 22.624582-62.01443 37.182572-81.33813 44.566914 15.039578 4.053362 31.453687 7.725467 47.998225 9.17023l-7.524805 13.042996c-25.00242-2.859426-47.125348-8.678609-67.382124-15.741893l4.043329-15.039578c3.110253 0.642117 5.849282-0.100331 8.598344-0.832745 11.45777-3.802535 28.544095-11.317307 49.503186-23.547624l-34.283013-12.842335 4.043329-15.049611c3.110253 0.642117 5.849282-0.090298 9.089965-1.695589 19.464163-9.621718 39.69084-24.581031 60.5496-42.66063z m-10.80562 104.986085l3.551708-14.176734c0.862844 0.501654 2.237375 0.140463 3.110253 0.642117 9.089965-1.705623 24.801759-8.849171 46.252471-21.952366l-33.008814-19.06284 7.524806-13.032963 48.660408 28.092607c1.40463-8.447848 2.809261-16.905729 2.849393-24.992387l15.400769 5.41786c-0.902977 7.585004-1.936383 17.407383-3.852701 26.738142l43.44321 25.082684-7.524805 13.032963-58.211895-33.610797c-18.220062 11.48787-32.196134 19.644759-43.663937 23.447294 18.390624 8.297352 37.63406 17.096358 56.516305 24.520832-0.832745-8.588311-1.66549-17.186656-3.36108-26.27662l13.93594-0.060199c3.501543 24.029212 5.397794 44.827774 5.317529 61.001089l-14.929214 1.805954c0.401323-6.722159 0.300992-12.571442-0.160529-19.795255-25.473975-10.063173-53.044862-22.504185-81.849817-36.821381z m11.126679 16.855564l13.032963 7.524805c-14.919181 23.818517-28.423698 39.189187-39.289517 47.97816-12.24035 9.150163-27.310027 13.193492-45.359527 14.357328l-2.167144-16.313778c15.300438-0.431422 28.142772-4.605181 38.868128-11.146745 9.862512-7.053251 21.500877-21.189852 34.915097-42.409803z m21.11962 119.925332c8.688642 5.016537 15.410801 5.41786 20.015983 3.451377 5.116868-2.83936 12.511243-13.634947 22.544317-31.002198l-9.66185-11.377506a195.965999 195.965999 0 0 1-16.283679 24.199774c-3.371113 3.842667-6.983019 4.073428-11.839027 2.428004l-12.160086-7.023151c-3.471444-2.006615-2.83936-5.116868-0.832745-8.588312l36.620719-63.429093-13.032962-7.524805-37.624027 65.164815c-6.521498 11.297241-3.451377 20.026015 7.845863 26.547513l14.407494 7.153582z m-283.956056 20.266809l-73.843424-42.640564-21.571109 37.363167 86.013542 49.663716-7.524805 13.032963-99.929416-57.690175 93.307587-161.612754 96.447939 55.68356-7.524805 13.032963-82.542099-47.657101-18.561186 32.145969 73.853456 42.640564-38.12568 66.037692z m-43.242549-95.645293l-23.07607 39.971766 60.810461 35.115759 23.07607-39.971767-60.820494-35.115758z m-28.624359-2.608599c-10.324033-0.170562-20.146412-1.214002-29.978825-2.257442l22.574416-39.098889 23.457327 13.54465 7.524805-13.032963-23.457327-13.54465 20.066148-34.754568-13.032963-7.524805-20.066148 34.754568-26.938803-15.551265-7.524805 13.042996 26.938803 15.551265-25.584338 44.306054c-11.568134-2.046747-23.497459-5.457992-34.553907-8.367584l-4.555015 15.912456c10.193603 2.407938 20.88886 3.942998 31.082463 6.360968l-28.092607 48.660409c-2.508268 4.334288-5.247298 5.076735-8.728775 3.07012-6.080043-3.511576-11.287208-6.521498-16.87563-10.905951l-4.916206 14.537924 19.123039 11.036381c9.551486 5.518191 16.905729 2.809261 22.42392-6.742225l33.109144-57.349051 29.477171 3.110253 8.528113-14.768684z m174.424989 179.471625l-7.524806 13.042996c-21.892167-2.217309-44.516749-7.173648-70.121153-14.999445l5.789084-14.046304c25.102751 8.708708 49.463054 14.658321 71.856875 16.002753z m47.476505-154.469205l10.033074 12.742004c-24.109477 19.674858-43.844533 33.771327-61.924132 43.02182 7.454574 3.150385 15.771992 6.792391 23.72822 9.069899a594.058304 594.058304 0 0 0 22.975739-15.70176l9.651817 11.367472c-34.704403 23.979047-61.282015 39.931634-79.732838 47.807597 14.537924 4.916206 29.577502 8.969568 45.620387 11.277175l-7.023152 12.160086c-23.126235-4.083461-43.011788-9.772214-61.904065-17.196689l3.551708-14.1667c3.110253 0.632084 5.849282-0.100331 8.086657 0.030099 10.594926-4.314222 25.945529-12.822268 46.041776-25.554239-10.564827-3.782469-20.266809-7.063284-30.319949-11.708597l4.053362-15.039578c3.110253 0.632084 5.849282-0.100331 9.089965-1.705623 18.721716-12.360747 38.085548-27.821714 58.071431-46.402966z m39.811237 115.661275l-25.203081-14.547957-19.06284 33.018846 25.203081 14.547957 19.06284-33.008813z m-6.902754 40.041998l26.065926 15.049611 19.06284-33.008813-26.065926-15.049611-19.06284 33.008813z m34.413443-41.536926l31.273091 18.059533-33.610797 58.211895-76.452023-44.145525-21.069455 36.500323c-3.009922 5.217198-1.906284 9.330759 4.163725 12.842334l50.39613 29.095914c6.080043 3.511576 11.06648 2.909591 15.681695 0.933076 3.742337-2.468136 9.992942-9.290626 18.390624-21.821935l10.524695 11.869126c-8.758873 11.156778-15.521165 18.852146-20.768463 23.928881-7.986327 5.819183-16.574638 6.641895-27.510689 1.494928l-59.084772-34.112451c-11.297241-6.521498-13.494484-14.748619-7.47464-25.183015l53.175292-92.093585-8.227121 2.207276-2.307607-14.076403c24.179708-5.738918 48.249052-17.327119 71.846842-36.139132l11.538035 10.133405c-5.618521 3.712237-10.374198 7.916095-15.982686 11.618299l44.306054 25.584339-6.019845 10.434396c-11.09658 5.177066-22.694813 11.216977-32.788085 14.658321z m-51.269007-29.597568l36.490289 21.069456c10.103305-3.441344 19.825354-8.247187 31.423588-14.297131l-35.617413-20.567801c-11.09658 5.177066-22.203192 10.354132-32.296464 13.795476z" fill="#D2624B" p-id="18447"></path></svg>