<svg xmlns="http://www.w3.org/2000/svg" viewBox="0 0 63.33 63.33"><defs><style>.cls-1{fill:#555b6d;}</style></defs><title>icon_close</title><g id="图层_2" data-name="图层 2"><path class="cls-1" d="M479.83,448.33A31.67,31.67,0,1,0,511.5,480,31.67,31.67,0,0,0,479.83,448.33Zm0,58.81A27.14,27.14,0,1,1,507,480,27.14,27.14,0,0,1,479.83,507.14Z" transform="translate(-448.17 -448.33)"/><path class="cls-1" d="M487.83,468.8l-8,8-8-8a2.26,2.26,0,0,0-3.2,3.2l8,8-8,8a2.26,2.26,0,0,0,3.2,3.2l8-8,8,8A2.26,2.26,0,0,0,491,488l-8-8,8-8a2.26,2.26,0,0,0-3.2-3.2Z" transform="translate(-448.17 -448.33)"/></g></svg>