<?xml version="1.0" standalone="no"?><!DOCTYPE svg PUBLIC "-//W3C//DTD SVG 1.1//EN" "http://www.w3.org/Graphics/SVG/1.1/DTD/svg11.dtd"><svg t="1594263177210" class="icon" viewBox="0 0 1024 1024" version="1.1" xmlns="http://www.w3.org/2000/svg" p-id="3031" width="32" height="32" xmlns:xlink="http://www.w3.org/1999/xlink"><defs><style type="text/css"></style></defs><path d="M512.088171 0.161232a511.911887 511.911887 0 1 0 511.750655 511.750655A511.911887 511.911887 0 0 0 511.926939 0z m0 963.522972a451.449853 451.449853 0 1 1 451.449853-451.449853 451.449853 451.449853 0 0 1-451.449853 451.449853z m0-707.486413a42.726504 42.726504 0 0 0-42.726503 42.565272v277.64166a42.726504 42.726504 0 0 0 85.291775 0v-277.319196a42.565272 42.565272 0 0 0-42.565272-42.565271z m0 426.458879a42.726504 42.726504 0 1 0 42.565272 42.726504 42.726504 42.726504 0 0 0-42.565272-42.726504z" fill="#f1b44c" p-id="3032"></path></svg>