<?xml version="1.0" standalone="no"?><!DOCTYPE svg PUBLIC "-//W3C//DTD SVG 1.1//EN" "http://www.w3.org/Graphics/SVG/1.1/DTD/svg11.dtd"><svg t="1600160742681" class="icon" viewBox="0 0 1024 1024" version="1.1" xmlns="http://www.w3.org/2000/svg" p-id="4118" width="32" height="32" xmlns:xlink="http://www.w3.org/1999/xlink"><defs><style type="text/css"></style></defs><path d="M549.967881 186.713176a25.652767 25.652767 0 1 0-18.833677 47.57127l3.247186 0.974156a238.343428 238.343428 0 0 1 153.754241 151.64357 25.669003 25.669003 0 0 0 48.707785-16.235928A289.811321 289.811321 0 0 0 549.967881 186.713176z" fill="#74788d" p-id="4119"></path><path d="M1017.887335 982.273664L804.871956 769.907722a461.262724 461.262724 0 1 0-35.881402 35.881401L982.330652 1017.830347a25.652767 25.652767 0 0 0 35.719043-35.556683z m-556.405264-109.917235a409.95719 409.95719 0 1 1 409.957191-409.95719 409.95719 409.95719 0 0 1-409.957191 409.145394z" fill="#74788d" p-id="4120"></path></svg>